<?xml version="1.0" encoding="utf-8"?>
<!-- Generator: Adobe Illustrator 17.0.0, SVG Export Plug-In . SVG Version: 6.00 Build 0)  -->
<!DOCTYPE svg PUBLIC "-//W3C//DTD SVG 1.1//EN" "http://www.w3.org/Graphics/SVG/1.1/DTD/svg11.dtd">
<svg version="1.1" id="Ebene_1" xmlns="http://www.w3.org/2000/svg" xmlns:xlink="http://www.w3.org/1999/xlink" x="0px" y="0px"
	 width="275px" height="374.5px" viewBox="0 0 275 374.5" enable-background="new 0 0 275 374.5" xml:space="preserve">
<g id="svg2" inkscape:version="0.48.4 r9939" sodipodi:docname="VektorLogo.svg" xmlns:dc="http://purl.org/dc/elements/1.1/" xmlns:cc="http://creativecommons.org/ns#" xmlns:inkscape="http://www.inkscape.org/namespaces/inkscape" xmlns:rdf="http://www.w3.org/1999/02/22-rdf-syntax-ns#" xmlns:svg="http://www.w3.org/2000/svg" xmlns:sodipodi="http://sodipodi.sourceforge.net/DTD/sodipodi-0.dtd">
	<path id="path3088_2_" sodipodi:nodetypes="cscccsc" inkscape:connector-curvature="0" fill="#ED1C24" stroke="#ED1C24" d="
		M64.268,368.249c19.816-59.343-5.758-155.527-38.048-207.691C-38.823,55.484,84.593-47.659,158.486,46.052
		c0,0,3.01,3.41,6.169,8.171c4.272-2.208,24.496-19.21,58.445-4.968c65.305,29.269,49.916,131.337,5.686,183.692
		C185.092,284.668,104.778,324.913,64.268,368.249z"/>
	<path id="Textpfad" sodipodi:nodetypes="cscccsc" inkscape:connector-curvature="0" fill="none" d="M90.873,344.462
		c17.989-53.871-5.227-141.185-34.539-188.539C-2.712,60.538,109.324-33.094,176.403,51.976c0,0,2.732,3.096,5.6,7.418
		c3.878-2.004,22.237-17.439,53.056-4.51c59.283,26.57,45.313,119.226,5.162,166.753
		C200.555,268.588,127.647,305.122,90.873,344.462z"/>
	<!--<text id="Textpfad_1_" transform="matrix(0.0689 -0.9976 0.9976 0.0689 96.1599 321.6304)"><tspan x="0" y="0" fill="#FFFFFF" stroke="#000000" stroke-width="0.25" stroke-miterlimit="10" font-family="'Helvetica-Bold'" font-size="29">T</tspan><tspan x="18.779" y="-0.201" fill="#FFFFFF" stroke="#000000" stroke-width="0.25" stroke-miterlimit="10" font-family="'Helvetica-Bold'" font-size="29" rotate="-4.788">r</tspan><tspan x="30.858" y="-1.174" fill="#FFFFFF" stroke="#000000" stroke-width="0.25" stroke-miterlimit="10" font-family="'Helvetica-Bold'" font-size="29" rotate="-8.506">a</tspan><tspan x="47.654" y="-3.703" fill="#FFFFFF" stroke="#000000" stroke-width="0.25" stroke-miterlimit="10" font-family="'Helvetica-Bold'" font-size="29" rotate="-12.389">g</tspan><tspan x="65.69" y="-7.722" fill="#FFFFFF" stroke="#000000" stroke-width="0.25" stroke-miterlimit="10" font-family="'Helvetica-Bold'" font-size="29" rotate="-15.788">e</tspan><tspan x="81.861" y="-12.296" fill="#FFFFFF" stroke="#000000" stroke-width="0.25" stroke-miterlimit="10" font-family="'Helvetica-Bold'" font-size="29" rotate="-18.912">b</tspan><tspan x="99.244" y="-18.292" fill="#FFFFFF" stroke="#000000" stroke-width="0.25" stroke-miterlimit="10" font-family="'Helvetica-Bold'" font-size="29" rotate="-21.947">e</tspan><tspan x="114.694" y="-24.586" fill="#FFFFFF" stroke="#000000" stroke-width="0.25" stroke-miterlimit="10" font-family="'Helvetica-Bold'" font-size="29" rotate="-24.46">r</tspan><tspan x="125.54" y="-29.467" fill="#FFFFFF" stroke="#000000" stroke-width="0.25" stroke-miterlimit="10" font-family="'Helvetica-Bold'" font-size="29" rotate="-27.152">a</tspan><tspan x="140.394" y="-37.184" fill="#FFFFFF" stroke="#000000" stroke-width="0.25" stroke-miterlimit="10" font-family="'Helvetica-Bold'" font-size="29" rotate="-29.994">t</tspan><tspan x="149.542" y="-42.328" fill="#FFFFFF" stroke="#000000" stroke-width="0.25" stroke-miterlimit="10" font-family="'Helvetica-Bold'" font-size="29" rotate="-33.636">u</tspan><tspan x="163.96" y="-52.518" fill="#FFFFFF" stroke="#000000" stroke-width="0.25" stroke-miterlimit="10" font-family="'Helvetica-Bold'" font-size="29" rotate="-30.756">n</tspan><tspan x="178.516" y="-61.276" fill="#FFFFFF" stroke="#000000" stroke-width="0.25" stroke-miterlimit="10" font-family="'Helvetica-Bold'" font-size="29" rotate="-22.036">g</tspan><tspan x="194.463" y="-67.463" fill="#FFFFFF" stroke="#000000" stroke-width="0.25" stroke-miterlimit="10" font-family="'Helvetica-Bold'" font-size="29" rotate="-15.053"> </tspan><tspan x="201.461" y="-69.896" fill="#FFFFFF" stroke="#000000" stroke-width="0.25" stroke-miterlimit="10" font-family="'Helvetica-Bold'" font-size="29" rotate="-6.662">H</tspan><tspan x="221.33" y="-72.163" fill="#FFFFFF" stroke="#000000" stroke-width="0.25" stroke-miterlimit="10" font-family="'Helvetica-Bold'" font-size="29" rotate="5.145">u</tspan><tspan x="238.085" y="-70.668" fill="#FFFFFF" stroke="#000000" stroke-width="0.25" stroke-miterlimit="10" font-family="'Helvetica-Bold'" font-size="29" rotate="15.768">s</tspan><tspan x="252.806" y="-66.679" fill="#FFFFFF" stroke="#000000" stroke-width="0.25" stroke-miterlimit="10" font-family="'Helvetica-Bold'" font-size="29" rotate="26.552">u</tspan><tspan x="268.013" y="-59.803" fill="#FFFFFF" stroke="#000000" stroke-width="0.25" stroke-miterlimit="10" font-family="'Helvetica-Bold'" font-size="29" rotate="40.73">m</tspan></text>-->
	
		<path id="path3927" sodipodi:ry="26.428572" sodipodi:rx="26.428572" sodipodi:cy="302.36218" sodipodi:type="arc" sodipodi:cx="437.14285" fill="none" stroke="#FFFFFF" stroke-width="7.2643" d="
		M223.432,84.225c0,10.576-8.573,19.149-19.149,19.149s-19.149-8.573-19.149-19.149s8.573-19.149,19.149-19.149
		S223.432,73.649,223.432,84.225z"/>
	<path id="path3088_1_" sodipodi:nodetypes="cscccsc" inkscape:connector-curvature="0" fill="#FFFFFF" stroke="#ED1C24" d="
		M152.183,229.957c7.099-21.26-2.063-55.72-13.631-74.409c-23.303-37.644,20.913-74.597,47.387-41.024c0,0,1.078,1.222,2.21,2.927
		c1.53-0.791,8.776-6.882,20.939-1.78c23.397,10.486,17.883,47.054,2.037,65.811C195.47,200.012,166.696,214.431,152.183,229.957z"
		/>
</g>
</svg>
